<?xml version="1.0" encoding="utf-8"?><!DOCTYPE svg PUBLIC "-//W3C//DTD SVG 1.1//EN" "http://www.w3.org/Graphics/SVG/1.1/DTD/svg11.dtd"><svg xmlns="http://www.w3.org/2000/svg" width="1000" height="1000" viewBox="0 0 35 35" shape-rendering="crispEdges"><path fill="#ffffff" d="M0 0h35v35H0z"/><path stroke="#0F5132" d="M3 3.5h7m2 0h2m1 0h1m1 0h7m1 0h7M3 4.5h1m5 0h1m1 0h1m4 0h4m1 0h2m2 0h1m5 0h1M3 5.5h1m1 0h3m1 0h1m5 0h3m1 0h3m1 0h1m1 0h1m1 0h3m1 0h1M3 6.5h1m1 0h3m1 0h1m2 0h3m1 0h1m1 0h2m1 0h1m3 0h1m1 0h3m1 0h1M3 7.5h1m1 0h3m1 0h1m2 0h2m2 0h2m2 0h2m3 0h1m1 0h3m1 0h1M3 8.5h1m5 0h1m1 0h1m1 0h1m1 0h1m1 0h1m2 0h1m1 0h1m2 0h1m5 0h1M3 9.5h7m1 0h1m1 0h1m1 0h1m1 0h1m1 0h1m1 0h1m1 0h1m1 0h7M11 10.5h2m1 0h1m1 0h1m5 0h2M7 11.5h4m1 0h1m2 0h2m1 0h1m3 0h2m1 0h2m3 0h1M4 12.5h1m1 0h2m3 0h1m1 0h2m2 0h1m1 0h1m1 0h1m3 0h1m1 0h5M5 13.5h2m2 0h2m1 0h2m4 0h1m1 0h2m2 0h1m2 0h2m2 0h1M3 14.5h1m7 0h1m1 0h2m1 0h2m1 0h1m2 0h3m5 0h2M4 15.5h1m1 0h2m1 0h1m1 0h3m5 0h1m1 0h2m3 0h1m1 0h1m2 0h1M4 16.5h4m2 0h1m1 0h6m3 0h1m3 0h1m1 0h1m1 0h1m1 0h1M3 17.5h1m4 0h2m2 0h1m6 0h3m5 0h1m3 0h1M5 18.5h1m2 0h1m1 0h1m2 0h3m1 0h2m1 0h1m5 0h1m1 0h1m1 0h1M3 19.5h1m2 0h6m1 0h4m2 0h1m1 0h2m1 0h1m5 0h1M3 20.5h3m2 0h1m3 0h3m6 0h1m3 0h3m3 0h1M5 21.5h1m1 0h4m1 0h2m3 0h1m3 0h1m1 0h1m2 0h2m1 0h1m1 0h1M7 22.5h2m1 0h3m2 0h1m3 0h1m1 0h1m4 0h1m1 0h1M3 23.5h7m1 0h1m1 0h4m1 0h1m1 0h2m1 0h6m1 0h1M11 24.5h2m6 0h1m1 0h1m1 0h1m3 0h1m1 0h3M3 25.5h7m1 0h1m9 0h3m1 0h1m1 0h1m3 0h1M3 26.5h1m5 0h1m1 0h1m1 0h3m1 0h3m1 0h3m3 0h2M3 27.5h1m1 0h3m1 0h1m1 0h2m2 0h1m1 0h1m1 0h2m1 0h6M3 28.5h1m1 0h3m1 0h1m2 0h3m2 0h5m4 0h1m3 0h1M3 29.5h1m1 0h3m1 0h1m2 0h2m1 0h1m1 0h1m1 0h1m1 0h4m3 0h4M3 30.5h1m5 0h1m3 0h1m1 0h4m1 0h2m1 0h1m1 0h2m1 0h1m1 0h2M3 31.5h7m5 0h1m3 0h3m1 0h3m1 0h1m2 0h1"/></svg>
