<svg xmlns="http://www.w3.org/2000/svg" viewBox="0 0 100 100">
  <defs>
    <linearGradient id="grad" x1="0%" y1="0%" x2="100%" y2="100%">
      <stop offset="0%" style="stop-color:#22c55e"/>
      <stop offset="100%" style="stop-color:#16a34a"/>
    </linearGradient>
  </defs>
  <!-- Circle background -->
  <circle cx="50" cy="50" r="48" fill="url(#grad)"/>
  <!-- Mosque dome -->
  <path d="M50 15 C35 15 25 30 25 40 L25 70 L75 70 L75 40 C75 30 65 15 50 15Z" fill="white"/>
  <!-- Minaret left -->
  <rect x="20" y="45" width="8" height="25" fill="white"/>
  <path d="M24 35 L20 45 L28 45 Z" fill="white"/>
  <!-- Minaret right -->
  <rect x="72" y="45" width="8" height="25" fill="white"/>
  <path d="M76 35 L72 45 L80 45 Z" fill="white"/>
  <!-- Door -->
  <path d="M42 70 L42 55 Q50 48 58 55 L58 70 Z" fill="#16a34a"/>
  <!-- Crescent -->
  <circle cx="50" cy="25" r="6" fill="#16a34a"/>
  <circle cx="52" cy="24" r="5" fill="white"/>
</svg>
